<?xml version="1.0" encoding="UTF-8"?>
<svg xmlns="http://www.w3.org/2000/svg" viewBox="-10 -37 583 126">
  <defs><style>.st0{fill:#00327a}.st1{fill:#00acff}</style></defs>
  <g transform="translate(-21.34,-46.86) scale(0.31025) translate(-326.58,15.62)"><path xmlns="http://www.w3.org/2000/svg" class="st0" d="M601.71,21.26c1,.58,2.12.44,3.2.5,26.34,1.51,49.02,11.46,67.98,29.73,14.97,14.43,24.73,31.9,29.38,52.17,2.29,9.96,3.13,20.04,2.44,30.27-1.41,21.11-8.33,40.2-21.15,57.02-16.02,21.01-37.06,34.28-62.92,39.82-8.75,1.88-17.63,2.52-26.57,2.07-5.12-.26-10.19-.95-15.25-1.85-17.36-3.09-32.67-10.56-46.37-21.5-.64-.51-1.23-1.1-1.87-1.67.34-1.06,1.15-1.58,1.78-2.21,6.17-6.19,12.36-12.37,18.54-18.54,10.11-10.1,20.22-20.19,30.33-30.29.65-.65,1.32-1.26,2.08-1.98,8.78,4.71,17.89,5.72,27.29,2.41,7.24-2.55,12.84-7.24,16.79-13.81,7.88-13.11,5.4-29.94-5.87-40.3-11.33-10.42-28.43-11.39-40.88-2.38-11.58,8.37-17.88,25.13-9.36,41.79-.39.45-.78.98-1.24,1.44-16.7,16.7-33.4,33.4-50.11,50.09-.46.46-.98.87-1.5,1.33-.97-.47-1.43-1.29-1.99-1.99-7.82-9.73-13.73-20.5-17.69-32.33-.72-2.15-1.47-4.31-1.94-6.52-.9-4.18-1.73-8.39-2.35-12.62-.75-5.07-1.1-10.18-1.05-15.32.4-41,23.39-75.23,56.02-92.64,10.69-5.71,22.04-9.46,34.05-11.21,3.33-.49,6.66-.89,10.03-.98,1.07-.03,2.19.09,3.19-.49h5.04Z" />
    <path xmlns="http://www.w3.org/2000/svg" class="st1" d="M469.84,359.2c-1-.58-2.12-.44-3.2-.5-26.34-1.51-49.02-11.46-67.98-29.73-14.97-14.43-24.73-31.9-29.38-52.17-2.29-9.96-3.13-20.04-2.44-30.27,1.41-21.11,8.33-40.2,21.15-57.02,16.02-21.01,37.06-34.28,62.92-39.82,8.75-1.88,17.63-2.52,26.57-2.07,5.12.26,10.19.95,15.25,1.85,17.36,3.09,32.67,10.56,46.37,21.5.64.51,1.23,1.1,1.87,1.67-.34,1.06-1.15,1.58-1.78,2.21-6.17,6.19-12.36,12.37-18.54,18.54-10.11,10.1-20.22,20.19-30.33,30.29-.65.65-1.32,1.26-2.08,1.98-8.78-4.71-17.89-5.72-27.29-2.41-7.24,2.55-12.84,7.24-16.79,13.81-7.88,13.11-5.4,29.94,5.87,40.3,11.33,10.42,28.43,11.39,40.88,2.38,11.58-8.37,17.88-25.13,9.36-41.79.39-.45.78-.98,1.24-1.44,16.7-16.7,33.4-33.4,50.11-50.09.46-.46.98-.87,1.5-1.33.97.47,1.43,1.29,1.99,1.99,7.82,9.73,13.73,20.5,17.69,32.33.72,2.15,1.47,4.31,1.94,6.52.9,4.18,1.73,8.39,2.35,12.62.75,5.07,1.1,10.18,1.05,15.32-.4,41-23.39,75.23-56.02,92.64-10.69,5.71-22.04,9.46-34.05,11.21-3.33.49-6.66.89-10.03.98-1.07.03-2.19-.09-3.19.49h-5.04Z" />
  </g>
  <g transform="translate(30.05,0) scale(0.43810) translate(175.52,-379.78)"><path xmlns="http://www.w3.org/2000/svg" class="st0" d="M563.46,504.94c-1.18,6.67.43,8.51,7.15,8.52,8.57.01,17.13.01,25.7,0,6.08,0,8.17-1.68,9.24-7.67,2.71-15.13,5.27-30.29,8.06-45.41,1.02-5.51,1.99-11.13,3.93-16.35,2.47-6.63,7.59-9.44,13.94-8.91,3.44.28,5.76,2.18,6.04,5.65.23,2.77.08,5.65-.39,8.39-3.27,18.99-6.71,37.96-10,56.95-.91,5.25.91,7.3,6.22,7.33,9.11.05,18.22.04,27.33,0,4.84-.02,7.24-1.98,8.09-6.69,2.65-14.82,5.15-29.66,7.92-44.46,1.21-6.46,2.42-13.01,4.59-19.19,2.14-6.11,7.22-8.59,13.4-7.97,3.29.33,5.6,2.14,5.95,5.41.32,2.98.4,6.11-.11,9.05-3.2,18.68-6.57,37.32-9.92,55.97-1.03,5.73.67,7.86,6.59,7.88,9,.03,18,.03,27,0,5.26-.01,7.47-1.8,8.42-7.03,3.07-16.94,6.09-33.89,9.1-50.84,1.76-9.92,3.85-19.78,3.27-29.97-.81-14.11-8.63-23.11-22.43-24.69-14.09-1.62-26.89,1.78-37.8,11.23-1.36,1.18-2.7,2.39-4.33,3.85-2.86-8.17-8.65-12.68-16.57-14.34-12.95-2.72-25-.63-35.68,7.57-2.29,1.76-4.44,3.7-7,5.84-.3-1.94-.52-3.52-.79-5.09-1.06-6.1-2.1-6.96-8.33-6.96-7.7,0-15.4-.02-23.1,0-5.36.01-7.71,2-8.65,7.25-.95,5.33-1.88,10.66-2.83,15.99-4.68,26.22-9.38,52.44-14.03,78.67Z" />
    <path xmlns="http://www.w3.org/2000/svg" class="st0" d="M923.86,506.07c-.94,5.45.79,7.36,6.41,7.38,9.21.03,18.43.03,27.64,0,5.23-.02,7.42-1.82,8.37-7.11,3.49-19.28,6.93-38.56,10.37-57.85,1.53-8.55,2.79-17.13,1.27-25.83-1.76-10.12-6.91-17.69-17.14-20.37-14.9-3.9-28.8-1.74-40.84,8.59-1.46,1.25-2.84,2.59-4.59,4.19-.28-1.99-.48-3.58-.74-5.16-.96-5.88-2.11-6.87-8.08-6.88-7.7-.01-15.39-.02-23.09,0-5.76.01-8,1.94-9.01,7.61-1.63,9.16-3.28,18.33-4.9,27.49-4,22.49-8.02,44.97-11.96,67.47-1.04,5.91.65,7.84,6.54,7.86,9.21.03,18.43.03,27.64,0,4.89-.02,7.25-1.84,8.12-6.62,2.87-15.76,5.53-31.56,8.47-47.31.99-5.29,2.04-10.67,3.99-15.65,2.49-6.33,8.77-9.42,14.98-8.4,4.12.68,6.31,2.68,6.53,6.84.17,3.21-.05,6.51-.59,9.69-3.07,18.03-6.32,36.04-9.43,54.06Z" />
    <path xmlns="http://www.w3.org/2000/svg" class="st0" d="M442.81,534.96c1.31.49,2.66.92,4.03,1.19,11.36,2.26,22.83,2.14,34.33,1.7,11.82-.45,22.1-4.31,29.54-13.93,2.64-3.41,5.17-7,7.13-10.83,7.19-14.08,14.15-28.27,21.13-42.45,9.52-19.33,19-38.68,28.47-58.03,3.33-6.8,1.63-9.57-5.8-9.58-9,0-18-.03-27,.01-5.24.03-7.82,1.73-9.63,6.62-5.93,16.04-11.81,32.09-17.63,48.17-2.12,5.86-4.06,11.79-6.08,17.69-.25-.07-.5-.14-.75-.21-.07-.4-.17-.8-.21-1.2-1.77-20.72-3.54-41.44-5.31-62.17-.62-7.32-2.35-8.91-9.82-8.92-8.57-.02-17.13,0-25.7,0-6.57,0-8.69,2.52-7.27,8.91,3.92,17.64,7.92,35.27,11.88,52.9,2.56,11.41,5.16,22.8,7.63,34.23.99,4.61-.7,7-5.3,7.91-1.26.25-2.58.46-3.86.37-3.89-.26-7.76-.72-11.65-1.01-4.18-.31-7.01,1.12-7.72,4.39-1.37,6.35-2.45,12.75-3.53,19.16-.42,2.47.8,4.2,3.11,5.07Z" />
    <path xmlns="http://www.w3.org/2000/svg" class="st0" d="M349.03,513.28c16.87,4.27,32.67,2.18,46.4-10.45.25,1.32.48,2.26.61,3.22.83,6.14,2.23,7.41,8.34,7.42,7.05.01,14.1.01,21.14,0,5.87-.01,8.01-1.8,9.03-7.51,3.84-21.53,7.7-43.05,11.5-64.58,3.55-20.09-4.75-33.72-24.3-38.22-8.24-1.89-16.94-2.25-25.45-2.4-14.01-.24-27.5,2.99-40.56,7.97-3.43,1.31-6.23,3.54-5.8,7.68.61,5.81,1.42,11.61,2.49,17.35.64,3.44,2.85,4.5,6.35,3.58,2.72-.71,5.36-1.72,8.07-2.44,10.02-2.66,20.15-4.51,30.49-2.28,6.88,1.48,8.88,5.83,5.89,12.93-3.74,0-7.75-.19-11.74.03-13.84.79-27.6,1.67-40.61,7.53-9.73,4.38-15.92,11.42-18.86,21.41-1.09,3.7-1.53,7.63-1.87,11.49-1.2,13.63,5.59,23.9,18.87,27.26ZM377.86,470.21c6.85-3.79,14.38-4.19,22.93-4.55-1.38,5.32-2.09,10.09-3.84,14.44-3.73,9.3-14.95,10.16-20.99,8.19-2.72-.89-4.04-3.13-4.43-5.91-.7-4.95,1.62-9.55,6.33-12.16Z" />
    <path xmlns="http://www.w3.org/2000/svg" class="st0" d="M754.97,435.9c-4.44,9.26-6.8,19.16-7.7,29.39-1.84,20.88,5.91,38.93,28.7,46.71,13.3,4.54,27,4.85,40.79,3.01,8.97-1.19,17.57-3.74,25.57-8.05,5.06-2.73,6.21-5.26,5.25-10.92-.54-3.2-1.07-6.41-1.65-9.61-1.03-5.71-3.16-6.91-8.61-4.89-.71.26-1.4.59-2.11.85-10.61,3.87-21.44,6.05-32.8,4.31-9.18-1.41-14.32-6.82-13.76-15.01h4.1c18.87,0,37.73,0,56.6,0,4.58,0,7.29-2.02,8.07-6.38,1.13-6.28,2.32-12.58,2.87-18.92,1.73-19.92-8.95-36.81-26.79-42.85-7.71-2.61-15.68-3.21-23.74-2.88-25.14,1.04-43.81,12.29-54.82,35.24ZM815.46,429.63c4.75,1.12,7.71,4.06,8.22,8.88.38,3.57.07,7.22.07,10.94h-33.84c2.17-4.5,3.7-8.57,5.96-12.18,4.13-6.59,11.99-9.43,19.58-7.63Z" />
    <path xmlns="http://www.w3.org/2000/svg" class="st1" d="M41.7,513.71c10.84,2.79,21.86,2.95,32.9,1.26,7.9-1.2,15.41-3.54,22.11-8.01,3.16-2.11,5.32-4.91,4.26-9.02-1.39-5.34-2.85-10.66-4.45-15.95-1-3.31-3.04-4.49-6.47-3.9-1.58.27-3.12.87-4.65,1.39-7.08,2.43-14.3,3.58-21.73,1.99-6.81-1.46-10.68-5.95-11.21-12.92-.5-6.48.56-12.77,2.92-18.79,4.26-10.85,12.82-16.34,24.46-15.29,4.8.43,9.54,1.74,14.24,2.95,4.4,1.13,7.57.56,9.79-2.84,3.68-5.62,7.22-11.33,10.6-17.14,2.18-3.75,1.44-6.6-2.17-8.91-2.08-1.33-4.36-2.44-6.69-3.25-9.29-3.23-18.87-4.77-28.74-4.91-4.32.36-8.66.5-12.94,1.11-18.03,2.57-32.99,10.47-43.08,26.04-8.74,13.48-12.46,28.62-12.16,44.51.43,22.36,11.61,36.17,33,41.68Z" />
    <path xmlns="http://www.w3.org/2000/svg" class="st0" d="M1033.02,454.66c.99-5.6,1.98-11.19,2.97-16.84,5.64,0,10.84.05,16.04-.02,4.63-.06,7.04-1.98,7.94-6.53,1.02-5.2,1.85-10.45,2.65-15.69.92-5.96-.58-7.65-6.69-7.7-4.87-.04-9.73,0-15.23,0,1.43-7.94,2.75-15.38,4.1-22.82.94-5.17-.57-7.31-5.69-7.38-9.21-.12-18.43-.11-27.65.02-4.48.06-6.68,2.12-7.52,6.57-1.09,5.74-2.14,11.49-3.15,17.25-1.1,6.3-1.07,6.3-7.36,6.37-5.18.05-7.73,1.75-8.7,6.46-1.18,5.72-2.11,11.5-2.9,17.29-.54,3.93,1.29,5.92,5.28,6.14,2.25.13,4.51.02,6.69.02.11.58.22.79.18.99-1.56,8.85-3.3,17.67-4.66,26.55-1.29,8.43-2.8,16.91-3.12,25.4-.42,11.16,4.71,18.6,14.45,21.84,13.23,4.41,26.69,3.72,40.08.54,2.88-.69,5.04-2.53,5.64-5.67,1.14-5.95,2.38-11.89,3.32-17.87.61-3.87-1.21-5.74-5.11-5.67-3.03.05-6.07.52-9.08.35-5.42-.29-7.13-2.41-6.29-7.84,1.13-7.27,2.52-14.51,3.8-21.75Z" />
    <path xmlns="http://www.w3.org/2000/svg" class="st0" d="M220.69,452.06c11.35,0,22.7-.03,34.05.03,2.34.01,3.31-.77,4.2-2.89,4.18-10.03,15.33-15.33,25.71-12.46,10.84,2.99,17.48,13.36,15.84,24.72-1.5,10.36-10.96,18.32-23.1,18.24-8.04-.42-14.83-4.89-18.61-13.57-.78-1.78-1.6-2.39-3.51-2.39-12.11.03-24.22,0-36.34,0-1.83,9.32-4.8,19.32-9.26,29.92-2.07,11.84-4.22,23.66-6.19,35.52-.78,4.68,1.1,6.81,5.75,6.84,9.65.06,19.3.06,28.95,0,4.27-.03,6.72-1.98,7.62-6.11.79-3.59,1.33-7.24,2-10.86.87-4.79,1.76-9.57,2.53-13.78,3.49,2.29,6.57,4.97,10.13,6.55,19.59,8.67,46.49,4.94,59.51-19.68,9.65-18.26,13.6-37.87,12.22-58.4-.74-10.95-4.52-20.82-14.19-27.28-8.66-5.79-18.42-6.8-28.41-5.32-9.43,1.4-17.69,5.57-25.1,12.82-.24-2.24-.39-3.73-.56-5.21-.44-3.78-2.1-5.61-5.82-5.66-8.89-.12-17.78-.09-26.67,0-3.45.04-5.67,2-6.54,5.31-.55,2.09-.84,4.24-1.23,6.37-.43,2.34-.83,4.69-1.26,7.03-.41,2.23-.86,4.48-1.44,7.45.58,6.93.58,14.56-.29,22.82Z" />
    <path xmlns="http://www.w3.org/2000/svg" class="st1" d="M218.93,463.73c-10.44,0-20.89.03-31.33,0-2.02,0-2.97.56-3.79,2.5-4.13,9.77-14.26,15.15-24.3,13.14-10.21-2.04-17.8-11.29-17.75-21.6.05-10.3,7.44-19.25,17.6-21.32,10.37-2.11,20.33,3.13,24.5,13.14.84,2.01,1.89,2.45,3.85,2.45,10.99-.02,21.98.02,32.96.03.87-8.26.88-15.89.29-22.82-.02.11-.04.21-.06.32-5.63-15.62-16.55-24.05-31.39-27.05-7.66-1.55-15.74-1.99-23.56-1.61-17.75.87-33.32,7.31-44.39,21.73-12.43,16.18-16.94,35.04-15.25,55.11,1.59,18.87,12.55,30.55,30.57,35.74,9.84,2.84,19.87,3.06,29.96,1.84,15.17-1.82,28.35-7.66,38.65-19.26,1.42-1.6,2.71-3.3,4.53-5.52-.17,1.51-.23,2.31-.37,3.11,4.46-10.61,7.43-20.6,9.26-29.92Z" />
  </g>
  <g transform="translate(30.05,0) scale(0.43810) translate(175.52,-373.93)"><path xmlns="http://www.w3.org/2000/svg" d="M715.44,557.64c0-1.56-.62-2.84-1.85-3.86-1.24-1.01-3.33-1.97-6.29-2.85-3.24-.89-5.7-2-7.39-3.32-1.69-1.33-2.53-3.13-2.53-5.41s.94-4.23,2.83-5.72c1.89-1.49,4.3-2.24,7.23-2.24,3.08,0,5.56.84,7.44,2.53s2.79,3.83,2.73,6.43l-.04.13h-2.33c0-2-.73-3.66-2.18-4.98-1.45-1.32-3.32-1.98-5.62-1.98s-4.21.56-5.55,1.68c-1.34,1.12-2.01,2.49-2.01,4.12s.61,2.81,1.82,3.8c1.22.99,3.36,1.92,6.43,2.78,3.2.93,5.63,2.08,7.31,3.44,1.68,1.36,2.52,3.17,2.52,5.42,0,2.36-.98,4.26-2.95,5.7-1.97,1.44-4.44,2.16-7.43,2.16s-5.59-.76-7.81-2.28c-2.22-1.52-3.3-3.74-3.23-6.66l.04-.13h2.31c0,2.35.88,4.09,2.65,5.24,1.76,1.15,3.78,1.72,6.04,1.72s4.21-.53,5.67-1.59c1.46-1.06,2.19-2.43,2.19-4.12Z" />
    <path xmlns="http://www.w3.org/2000/svg" d="M726.29,536.01h-2.48v-3.5h2.48v3.5ZM726.29,565.02h-2.48v-22.55h2.48v22.55Z" />
    <path xmlns="http://www.w3.org/2000/svg" d="M746.69,559.25c0-1.06-.43-1.98-1.3-2.76-.87-.78-2.43-1.43-4.7-1.93-2.67-.56-4.65-1.32-5.95-2.28-1.3-.97-1.95-2.32-1.95-4.05s.73-3.18,2.18-4.38c1.45-1.19,3.37-1.79,5.76-1.79,2.51,0,4.52.64,6.02,1.91,1.5,1.27,2.22,2.84,2.15,4.7l-.04.13h-2.31c0-1.24-.53-2.31-1.59-3.23-1.06-.92-2.47-1.38-4.22-1.38s-3.17.4-4.08,1.19c-.92.79-1.38,1.72-1.38,2.77s.39,1.88,1.18,2.55c.78.67,2.35,1.27,4.7,1.78,2.64.58,4.64,1.4,5.99,2.44,1.35,1.04,2.03,2.45,2.03,4.21,0,1.88-.76,3.4-2.28,4.57-1.52,1.17-3.53,1.76-6.03,1.76-2.74,0-4.89-.65-6.45-1.96-1.56-1.31-2.3-2.86-2.22-4.67l.04-.13h2.29c.1,1.63.76,2.81,1.99,3.54,1.23.74,2.68,1.1,4.34,1.1,1.81,0,3.23-.4,4.27-1.21,1.04-.81,1.56-1.77,1.56-2.9Z" />
    <path xmlns="http://www.w3.org/2000/svg" d="M758.82,536.7v5.77h4.96v2.04h-4.96v14.69c0,1.47.27,2.52.8,3.14.53.62,1.25.93,2.14.93.31,0,.6-.02.89-.05.28-.03.62-.09,1.01-.18l.38,1.85c-.33.17-.75.3-1.24.41-.49.1-.98.16-1.47.16-1.58,0-2.82-.5-3.7-1.5-.88-1-1.32-2.58-1.32-4.75v-14.69h-3.9v-2.04h3.9v-5.77h2.52Z" />
    <path xmlns="http://www.w3.org/2000/svg" d="M777.22,565.46c-2.92,0-5.29-1.03-7.11-3.09-1.82-2.06-2.73-4.71-2.73-7.95v-1.15c0-3.25.92-5.93,2.76-8.04,1.84-2.11,4.12-3.17,6.85-3.17s4.85.88,6.35,2.64c1.49,1.76,2.24,4.12,2.24,7.1v1.94h-15.69v.69c0,2.57.65,4.7,1.95,6.4,1.3,1.7,3.09,2.54,5.39,2.54,1.38,0,2.64-.23,3.79-.68,1.15-.45,2.11-1.06,2.88-1.82l1.06,1.71c-.79.83-1.83,1.52-3.12,2.07-1.29.55-2.82.82-4.62.82ZM776.99,544.18c-1.92,0-3.49.69-4.73,2.06-1.24,1.38-1.96,3.12-2.17,5.23l.06.13h12.92v-.52c0-2-.52-3.65-1.57-4.95-1.05-1.3-2.55-1.95-4.51-1.95Z" />
    <path xmlns="http://www.w3.org/2000/svg" d="M792.75,542.47l.23,3.71c.72-1.31,1.68-2.32,2.89-3.04,1.2-.72,2.63-1.08,4.28-1.08s3.16.41,4.31,1.24c1.15.83,1.98,2.09,2.48,3.78.68-1.57,1.65-2.8,2.91-3.69,1.26-.89,2.77-1.33,4.55-1.33,2.4,0,4.26.8,5.57,2.4,1.31,1.6,1.97,4.07,1.97,7.42v13.15h-2.5v-13.19c0-2.78-.49-4.74-1.48-5.89-.99-1.15-2.35-1.72-4.08-1.72-1.9,0-3.38.58-4.42,1.74-1.04,1.16-1.7,2.66-1.98,4.49,0,.15,0,.31.01.46,0,.15.01.35.01.58v13.52h-2.52v-13.19c0-2.72-.5-4.67-1.49-5.85-.99-1.17-2.36-1.76-4.09-1.76s-3.14.44-4.18,1.32c-1.04.88-1.76,2.07-2.18,3.57v15.9h-2.5v-22.55h2.21Z" />
    <path xmlns="http://www.w3.org/2000/svg" d="M842.72,565.02c-.15-.79-.27-1.47-.34-2.04-.08-.57-.11-1.15-.11-1.75-.78,1.22-1.87,2.23-3.27,3.03-1.4.8-3.01,1.2-4.83,1.2-2.21,0-3.92-.59-5.14-1.76-1.22-1.17-1.82-2.77-1.82-4.78s.88-3.65,2.65-4.9c1.76-1.25,4.06-1.88,6.88-1.88h5.54v-2.79c0-1.61-.51-2.88-1.53-3.79-1.02-.92-2.46-1.38-4.32-1.38-1.71,0-3.09.42-4.14,1.25-1.05.83-1.57,1.88-1.57,3.15h-2.31l-.04-.13c-.08-1.69.64-3.18,2.18-4.47,1.53-1.28,3.54-1.93,6.01-1.93s4.46.63,5.96,1.9c1.5,1.26,2.25,3.08,2.25,5.44v11.09c0,.79.04,1.56.14,2.31.09.75.24,1.49.45,2.23h-2.6ZM834.43,563.25c1.92,0,3.58-.45,4.98-1.36,1.4-.91,2.35-2.08,2.85-3.51v-4.31h-5.56c-2.03,0-3.7.48-5.02,1.45-1.32.97-1.98,2.13-1.98,3.49,0,1.28.42,2.31,1.26,3.08.84.78,2,1.17,3.47,1.17Z" />
    <path xmlns="http://www.w3.org/2000/svg" d="M864.89,559.25c0-1.06-.43-1.98-1.3-2.76-.87-.78-2.43-1.43-4.7-1.93-2.67-.56-4.65-1.32-5.95-2.28-1.3-.97-1.95-2.32-1.95-4.05s.73-3.18,2.18-4.38c1.45-1.19,3.37-1.79,5.76-1.79,2.51,0,4.52.64,6.02,1.91,1.5,1.27,2.22,2.84,2.15,4.7l-.04.13h-2.31c0-1.24-.53-2.31-1.59-3.23-1.06-.92-2.47-1.38-4.22-1.38s-3.17.4-4.08,1.19c-.92.79-1.38,1.72-1.38,2.77s.39,1.88,1.18,2.55c.78.67,2.35,1.27,4.7,1.78,2.64.58,4.64,1.4,5.99,2.44s2.03,2.45,2.03,4.21c0,1.88-.76,3.4-2.28,4.57-1.52,1.17-3.53,1.76-6.03,1.76-2.74,0-4.89-.65-6.45-1.96-1.56-1.31-2.3-2.86-2.22-4.67l.04-.13h2.29c.1,1.63.76,2.81,1.99,3.54,1.23.74,2.68,1.1,4.34,1.1,1.81,0,3.23-.4,4.27-1.21,1.04-.81,1.56-1.77,1.56-2.9Z" />
    <path xmlns="http://www.w3.org/2000/svg" d="M882.52,553.93c0-3.6.76-6.48,2.28-8.64,1.52-2.16,3.64-3.24,6.37-3.24,1.54,0,2.89.33,4.05.98,1.16.65,2.12,1.58,2.89,2.77v-13.3h2.5v32.51h-2.04l-.35-3.27c-.76,1.19-1.74,2.11-2.92,2.75-1.18.64-2.57.96-4.17.96-2.7,0-4.8-1-6.32-3.01-1.52-2.01-2.28-4.7-2.28-8.07v-.44ZM885.02,554.37c0,2.72.55,4.89,1.64,6.5,1.09,1.61,2.73,2.42,4.93,2.42,1.61,0,2.95-.36,4.02-1.07,1.07-.72,1.9-1.71,2.5-2.97v-10.69c-.57-1.28-1.38-2.32-2.42-3.13-1.04-.81-2.4-1.21-4.06-1.21-2.2,0-3.84.9-4.95,2.7-1.1,1.8-1.66,4.14-1.66,7.01v.44Z" />
    <path xmlns="http://www.w3.org/2000/svg" d="M915.82,565.46c-2.92,0-5.29-1.03-7.11-3.09-1.82-2.06-2.73-4.71-2.73-7.95v-1.15c0-3.25.92-5.93,2.76-8.04,1.84-2.11,4.12-3.17,6.85-3.17s4.85.88,6.35,2.64c1.49,1.76,2.24,4.12,2.24,7.1v1.94h-15.69v.69c0,2.57.65,4.7,1.95,6.4,1.3,1.7,3.09,2.54,5.39,2.54,1.38,0,2.64-.23,3.79-.68,1.15-.45,2.11-1.06,2.88-1.82l1.06,1.71c-.79.83-1.83,1.52-3.12,2.07-1.29.55-2.82.82-4.62.82ZM915.59,544.18c-1.92,0-3.49.69-4.73,2.06-1.24,1.38-1.96,3.12-2.17,5.23l.06.13h12.92v-.52c0-2-.52-3.65-1.57-4.95-1.05-1.3-2.55-1.95-4.51-1.95Z" />
    <path xmlns="http://www.w3.org/2000/svg" d="M957.75,554.37c0,3.38-.76,6.07-2.29,8.07-1.53,2.01-3.63,3.01-6.31,3.01-1.57,0-2.95-.3-4.14-.9-1.19-.6-2.16-1.44-2.91-2.54v11.67h-2.5v-31.22h1.92l.46,3.52c.75-1.25,1.72-2.22,2.92-2.91,1.19-.69,2.6-1.03,4.21-1.03,2.71,0,4.83,1.08,6.36,3.24,1.53,2.16,2.29,5.04,2.29,8.64v.44ZM955.25,553.93c0-2.86-.57-5.2-1.71-7-1.14-1.81-2.81-2.71-5-2.71-1.65,0-3,.4-4.05,1.19-1.05.79-1.84,1.82-2.39,3.08v10.92c.58,1.22,1.41,2.18,2.48,2.89,1.07.7,2.4,1.05,4,1.05,2.18,0,3.84-.82,4.97-2.46,1.13-1.64,1.7-3.81,1.7-6.52v-.44Z" />
    <path xmlns="http://www.w3.org/2000/svg" d="M977.63,565.02c-.15-.79-.27-1.47-.34-2.04-.08-.57-.11-1.15-.11-1.75-.78,1.22-1.87,2.23-3.27,3.03-1.4.8-3.01,1.2-4.83,1.2-2.21,0-3.92-.59-5.14-1.76-1.22-1.17-1.82-2.77-1.82-4.78s.88-3.65,2.65-4.9c1.76-1.25,4.06-1.88,6.88-1.88h5.54v-2.79c0-1.61-.51-2.88-1.53-3.79s-2.46-1.38-4.32-1.38c-1.71,0-3.09.42-4.14,1.25-1.05.83-1.57,1.88-1.57,3.15h-2.31l-.04-.13c-.08-1.69.64-3.18,2.18-4.47,1.53-1.28,3.54-1.93,6.01-1.93s4.46.63,5.96,1.9c1.5,1.26,2.25,3.08,2.25,5.44v11.09c0,.79.04,1.56.14,2.31.09.75.24,1.49.45,2.23h-2.6ZM969.33,563.25c1.92,0,3.58-.45,4.98-1.36,1.4-.91,2.35-2.08,2.85-3.51v-4.31h-5.56c-2.03,0-3.7.48-5.02,1.45-1.32.97-1.98,2.13-1.98,3.49,0,1.28.42,2.31,1.26,3.08.84.78,2,1.17,3.47,1.17Z" />
    <path xmlns="http://www.w3.org/2000/svg" d="M985.4,553.93c0-3.6.76-6.48,2.28-8.64,1.52-2.16,3.64-3.24,6.37-3.24,1.6,0,2.99.34,4.17,1.03,1.18.69,2.15,1.66,2.92,2.93l.35-3.54h2.02v22.67c0,2.88-.79,5.09-2.38,6.65-1.58,1.56-3.83,2.33-6.73,2.33-1.08,0-2.24-.13-3.47-.4-1.23-.26-2.3-.63-3.22-1.08l.48-2.1c.9.44,1.87.78,2.89,1.01s2.12.34,3.28.34c2.22,0,3.88-.57,4.98-1.71,1.1-1.14,1.65-2.82,1.65-5.04v-3.19c-.76,1.13-1.73,1.99-2.91,2.59-1.17.6-2.53.91-4.07.91-2.7,0-4.8-1.01-6.32-3.02-1.52-2.01-2.28-4.7-2.28-8.06v-.44ZM987.9,554.37c0,2.72.55,4.89,1.65,6.5,1.1,1.61,2.74,2.42,4.94,2.42,1.58,0,2.91-.36,3.99-1.07,1.08-.72,1.91-1.7,2.51-2.95v-10.75c-.57-1.26-1.38-2.3-2.43-3.09-1.05-.8-2.39-1.2-4.03-1.2-2.2,0-3.85.9-4.96,2.71-1.11,1.81-1.67,4.14-1.67,7v.44Z" />
    <path xmlns="http://www.w3.org/2000/svg" d="M1008.66,553.41c0-3.32.91-6.04,2.73-8.17,1.82-2.13,4.23-3.19,7.23-3.19s5.43,1.06,7.25,3.19c1.82,2.13,2.73,4.85,2.73,8.17v.69c0,3.33-.91,6.06-2.72,8.18-1.81,2.12-4.22,3.18-7.22,3.18s-5.45-1.06-7.27-3.18c-1.82-2.12-2.73-4.84-2.73-8.18v-.69ZM1011.16,554.1c0,2.61.66,4.81,1.98,6.59,1.32,1.78,3.16,2.67,5.52,2.67s4.14-.89,5.47-2.67c1.33-1.78,1.99-3.97,1.99-6.59v-.69c0-2.57-.67-4.75-2-6.54-1.33-1.79-3.17-2.69-5.5-2.69s-4.16.9-5.48,2.69c-1.32,1.79-1.98,3.97-1.98,6.54v.69Z" />
    <path xmlns="http://www.w3.org/2000/svg" d="M1047.31,559.25c0-1.06-.43-1.98-1.3-2.76-.87-.78-2.43-1.43-4.7-1.93-2.67-.56-4.65-1.32-5.95-2.28-1.3-.97-1.95-2.32-1.95-4.05s.73-3.18,2.18-4.38c1.45-1.19,3.37-1.79,5.76-1.79,2.51,0,4.52.64,6.02,1.91,1.5,1.27,2.22,2.84,2.15,4.7l-.04.13h-2.31c0-1.24-.53-2.31-1.59-3.23-1.06-.92-2.47-1.38-4.22-1.38s-3.17.4-4.08,1.19c-.92.79-1.38,1.72-1.38,2.77s.39,1.88,1.18,2.55c.78.67,2.35,1.27,4.7,1.78,2.64.58,4.64,1.4,5.99,2.44,1.35,1.04,2.03,2.45,2.03,4.21,0,1.88-.76,3.4-2.28,4.57-1.52,1.17-3.53,1.76-6.03,1.76-2.74,0-4.89-.65-6.45-1.96-1.56-1.31-2.3-2.86-2.22-4.67l.04-.13h2.29c.1,1.63.76,2.81,1.99,3.54,1.23.74,2.68,1.1,4.34,1.1,1.81,0,3.23-.4,4.27-1.21,1.04-.81,1.56-1.77,1.56-2.9Z" />
  </g>
</svg>